<mxfile host="app.diagrams.net" agent="Mozilla/5.0 (Windows NT 10.0; Win64; x64) AppleWebKit/537.36 (KHTML, like Gecko) Chrome/129.0.0.0 Safari/537.36 Edg/129.0.0.0" version="24.7.16">
  <diagram name="Page-1" id="oLrQsLLNxiNXnWnqp0oX">
    <mxGraphModel dx="844" dy="781" grid="1" gridSize="10" guides="1" tooltips="1" connect="1" arrows="1" fold="1" page="1" pageScale="1" pageWidth="850" pageHeight="1100" math="0" shadow="0">
      <root>
        <mxCell id="0" />
        <mxCell id="1" parent="0" />
        <mxCell id="gWO-a_-Gbs79yWv2zVK5-22" style="edgeStyle=orthogonalEdgeStyle;rounded=0;orthogonalLoop=1;jettySize=auto;html=1;exitX=0.817;exitY=1.029;exitDx=0;exitDy=0;exitPerimeter=0;" parent="1" source="gWO-a_-Gbs79yWv2zVK5-13" target="gWO-a_-Gbs79yWv2zVK5-6" edge="1">
          <mxGeometry relative="1" as="geometry">
            <mxPoint x="112" y="222.47" as="sourcePoint" />
          </mxGeometry>
        </mxCell>
        <mxCell id="gWO-a_-Gbs79yWv2zVK5-29" value="" style="edgeStyle=orthogonalEdgeStyle;rounded=0;orthogonalLoop=1;jettySize=auto;html=1;" parent="1" source="fGlrDVOS8aVIvN23r_SS-1" target="gWO-a_-Gbs79yWv2zVK5-14" edge="1">
          <mxGeometry relative="1" as="geometry" />
        </mxCell>
        <mxCell id="fGlrDVOS8aVIvN23r_SS-1" value="WHOOP&lt;div style=&quot;font-size: 8px;&quot;&gt;{REST} API&lt;/div&gt;" style="rounded=1;whiteSpace=wrap;html=1;fontSize=8;fontStyle=1" parent="1" vertex="1">
          <mxGeometry x="100" y="122.47" width="60" height="30" as="geometry" />
        </mxCell>
        <mxCell id="gWO-a_-Gbs79yWv2zVK5-6" value="&lt;font color=&quot;#3675a3&quot;&gt;Cosmos Db&lt;/font&gt;" style="image;aspect=fixed;html=1;points=[];align=center;fontSize=12;image=img/lib/azure2/databases/Azure_Cosmos_DB.svg;" parent="1" vertex="1">
          <mxGeometry x="196" y="262.47" width="64" height="64" as="geometry" />
        </mxCell>
        <mxCell id="gWO-a_-Gbs79yWv2zVK5-7" value="&lt;font color=&quot;#3675a3&quot;&gt;Azure Data Explorer&lt;/font&gt;" style="image;aspect=fixed;html=1;points=[];align=center;fontSize=12;image=img/lib/azure2/databases/Azure_Data_Explorer_Clusters.svg;" parent="1" vertex="1">
          <mxGeometry x="202" y="392.47" width="52" height="52" as="geometry" />
        </mxCell>
        <mxCell id="gWO-a_-Gbs79yWv2zVK5-19" value="MyTestFunction (Timer Trigger)" style="rounded=1;whiteSpace=wrap;html=1;fillColor=#cce5ff;strokeColor=#36393d;align=right;" parent="1" vertex="1">
          <mxGeometry x="732.5" y="50" width="200" height="40" as="geometry" />
        </mxCell>
        <mxCell id="gWO-a_-Gbs79yWv2zVK5-23" value="" style="group" parent="1" vertex="1" connectable="0">
          <mxGeometry x="80" y="172.47" width="180" height="50" as="geometry" />
        </mxCell>
        <mxCell id="gWO-a_-Gbs79yWv2zVK5-13" value="" style="rounded=1;whiteSpace=wrap;html=1;" parent="gWO-a_-Gbs79yWv2zVK5-23" vertex="1">
          <mxGeometry width="180" height="50" as="geometry" />
        </mxCell>
        <mxCell id="gWO-a_-Gbs79yWv2zVK5-1" value="" style="image;aspect=fixed;html=1;points=[];align=center;fontSize=12;image=img/lib/azure2/iot/Function_Apps.svg;" parent="gWO-a_-Gbs79yWv2zVK5-23" vertex="1">
          <mxGeometry x="8.571428571428571" y="13.442857142857138" width="23.26530612244898" height="20.52857142857143" as="geometry" />
        </mxCell>
        <mxCell id="gWO-a_-Gbs79yWv2zVK5-14" value="" style="image;aspect=fixed;html=1;points=[];align=center;fontSize=12;image=img/lib/azure2/iot/Function_Apps.svg;" parent="gWO-a_-Gbs79yWv2zVK5-23" vertex="1">
          <mxGeometry x="51.42857142857142" y="13.442857142857138" width="23.26530612244898" height="20.52857142857143" as="geometry" />
        </mxCell>
        <mxCell id="gWO-a_-Gbs79yWv2zVK5-15" value="" style="image;aspect=fixed;html=1;points=[];align=center;fontSize=12;image=img/lib/azure2/iot/Function_Apps.svg;" parent="gWO-a_-Gbs79yWv2zVK5-23" vertex="1">
          <mxGeometry x="94.28571428571428" y="13.442857142857138" width="23.26530612244898" height="20.52857142857143" as="geometry" />
        </mxCell>
        <mxCell id="gWO-a_-Gbs79yWv2zVK5-16" value="" style="image;aspect=fixed;html=1;points=[];align=center;fontSize=12;image=img/lib/azure2/iot/Function_Apps.svg;" parent="gWO-a_-Gbs79yWv2zVK5-23" vertex="1">
          <mxGeometry x="137.14285714285714" y="13.442857142857138" width="23.26530612244898" height="20.52857142857143" as="geometry" />
        </mxCell>
        <mxCell id="gWO-a_-Gbs79yWv2zVK5-25" style="edgeStyle=orthogonalEdgeStyle;rounded=0;orthogonalLoop=1;jettySize=auto;html=1;entryX=0.499;entryY=-0.009;entryDx=0;entryDy=0;entryPerimeter=0;" parent="1" target="gWO-a_-Gbs79yWv2zVK5-7" edge="1">
          <mxGeometry relative="1" as="geometry">
            <mxPoint x="228" y="352.47" as="sourcePoint" />
          </mxGeometry>
        </mxCell>
        <mxCell id="gWO-a_-Gbs79yWv2zVK5-26" style="edgeStyle=orthogonalEdgeStyle;rounded=0;orthogonalLoop=1;jettySize=auto;html=1;entryX=0.533;entryY=0;entryDx=0;entryDy=0;entryPerimeter=0;" parent="1" source="gWO-a_-Gbs79yWv2zVK5-19" target="k5jXDVbveXFAY3QRfXmo-9" edge="1">
          <mxGeometry relative="1" as="geometry">
            <mxPoint x="804.74" y="147.1500000000001" as="targetPoint" />
          </mxGeometry>
        </mxCell>
        <mxCell id="gWO-a_-Gbs79yWv2zVK5-33" value="&lt;span style=&quot;&quot;&gt;Azure Durable Functions&lt;/span&gt;" style="text;html=1;align=left;verticalAlign=top;whiteSpace=wrap;rounded=0;fontColor=#3675A3;" parent="1" vertex="1">
          <mxGeometry x="90" y="222.47" width="180" height="30" as="geometry" />
        </mxCell>
        <mxCell id="k5jXDVbveXFAY3QRfXmo-9" value="" style="rounded=0;whiteSpace=wrap;html=1;glass=0;movable=1;resizable=1;rotatable=1;deletable=1;editable=1;locked=0;connectable=1;fillColor=#f5f5f5;fontColor=#333333;strokeColor=#666666;" vertex="1" parent="1">
          <mxGeometry x="630" y="150" width="380" height="370" as="geometry" />
        </mxCell>
        <mxCell id="k5jXDVbveXFAY3QRfXmo-2" value="" style="image;aspect=fixed;html=1;points=[];align=center;fontSize=12;image=img/lib/azure2/iot/Function_Apps.svg;" vertex="1" parent="1">
          <mxGeometry x="635.0028571428571" y="157.2028571428571" width="23.26530612244898" height="20.52857142857143" as="geometry" />
        </mxCell>
        <mxCell id="k5jXDVbveXFAY3QRfXmo-10" value="WhoopOrchestratorFunction" style="text;html=1;align=left;verticalAlign=middle;whiteSpace=wrap;rounded=0;fontSize=10;" vertex="1" parent="1">
          <mxGeometry x="665" y="152.47" width="170" height="30" as="geometry" />
        </mxCell>
        <mxCell id="k5jXDVbveXFAY3QRfXmo-30" style="edgeStyle=orthogonalEdgeStyle;rounded=0;orthogonalLoop=1;jettySize=auto;html=1;" edge="1" parent="1" source="k5jXDVbveXFAY3QRfXmo-12" target="k5jXDVbveXFAY3QRfXmo-27">
          <mxGeometry relative="1" as="geometry">
            <Array as="points">
              <mxPoint x="805" y="260" />
              <mxPoint x="732" y="260" />
            </Array>
          </mxGeometry>
        </mxCell>
        <mxCell id="k5jXDVbveXFAY3QRfXmo-31" style="edgeStyle=orthogonalEdgeStyle;rounded=0;orthogonalLoop=1;jettySize=auto;html=1;" edge="1" parent="1" source="k5jXDVbveXFAY3QRfXmo-12">
          <mxGeometry relative="1" as="geometry">
            <mxPoint x="907" y="280" as="targetPoint" />
            <Array as="points">
              <mxPoint x="805" y="260" />
              <mxPoint x="907" y="260" />
            </Array>
          </mxGeometry>
        </mxCell>
        <mxCell id="k5jXDVbveXFAY3QRfXmo-12" value="" style="rounded=1;whiteSpace=wrap;html=1;" vertex="1" parent="1">
          <mxGeometry x="732.5" y="200" width="145" height="50" as="geometry" />
        </mxCell>
        <mxCell id="k5jXDVbveXFAY3QRfXmo-13" value="RefreshTokenActivity" style="text;html=1;align=left;verticalAlign=middle;whiteSpace=wrap;rounded=0;fontSize=10;" vertex="1" parent="1">
          <mxGeometry x="766.63" y="210" width="100" height="30" as="geometry" />
        </mxCell>
        <mxCell id="k5jXDVbveXFAY3QRfXmo-14" value="" style="image;aspect=fixed;html=1;points=[];align=center;fontSize=12;image=img/lib/azure2/iot/Function_Apps.svg;" vertex="1" parent="1">
          <mxGeometry x="743.3628571428571" y="214.47285714285712" width="23.26530612244898" height="20.52857142857143" as="geometry" />
        </mxCell>
        <mxCell id="k5jXDVbveXFAY3QRfXmo-34" style="edgeStyle=orthogonalEdgeStyle;rounded=0;orthogonalLoop=1;jettySize=auto;html=1;entryX=0.5;entryY=0;entryDx=0;entryDy=0;" edge="1" parent="1" source="k5jXDVbveXFAY3QRfXmo-16" target="k5jXDVbveXFAY3QRfXmo-19">
          <mxGeometry relative="1" as="geometry" />
        </mxCell>
        <mxCell id="k5jXDVbveXFAY3QRfXmo-16" value="" style="rounded=1;whiteSpace=wrap;html=1;" vertex="1" parent="1">
          <mxGeometry x="835" y="280" width="145" height="50" as="geometry" />
        </mxCell>
        <mxCell id="k5jXDVbveXFAY3QRfXmo-17" value="Update&lt;b&gt;Cycles&lt;/b&gt;Activity" style="text;html=1;align=left;verticalAlign=middle;whiteSpace=wrap;rounded=0;fontSize=10;" vertex="1" parent="1">
          <mxGeometry x="869.13" y="290" width="100" height="30" as="geometry" />
        </mxCell>
        <mxCell id="k5jXDVbveXFAY3QRfXmo-18" value="" style="image;aspect=fixed;html=1;points=[];align=center;fontSize=12;image=img/lib/azure2/iot/Function_Apps.svg;" vertex="1" parent="1">
          <mxGeometry x="845.8628571428571" y="294.47285714285715" width="23.26530612244898" height="20.52857142857143" as="geometry" />
        </mxCell>
        <mxCell id="k5jXDVbveXFAY3QRfXmo-35" style="edgeStyle=orthogonalEdgeStyle;rounded=0;orthogonalLoop=1;jettySize=auto;html=1;entryX=0.5;entryY=0;entryDx=0;entryDy=0;" edge="1" parent="1" source="k5jXDVbveXFAY3QRfXmo-19" target="k5jXDVbveXFAY3QRfXmo-22">
          <mxGeometry relative="1" as="geometry" />
        </mxCell>
        <mxCell id="k5jXDVbveXFAY3QRfXmo-40" style="rounded=0;orthogonalLoop=1;jettySize=auto;html=1;dashed=1;dashPattern=1 4;endArrow=none;endFill=0;" edge="1" parent="1" source="k5jXDVbveXFAY3QRfXmo-19" target="k5jXDVbveXFAY3QRfXmo-36">
          <mxGeometry relative="1" as="geometry" />
        </mxCell>
        <mxCell id="k5jXDVbveXFAY3QRfXmo-19" value="" style="rounded=1;whiteSpace=wrap;html=1;" vertex="1" parent="1">
          <mxGeometry x="835" y="360" width="145" height="50" as="geometry" />
        </mxCell>
        <mxCell id="k5jXDVbveXFAY3QRfXmo-20" value="Update&lt;b&gt;Recovery&lt;/b&gt;Activity" style="text;html=1;align=left;verticalAlign=middle;whiteSpace=wrap;rounded=0;fontSize=10;" vertex="1" parent="1">
          <mxGeometry x="869.13" y="370" width="100" height="30" as="geometry" />
        </mxCell>
        <mxCell id="k5jXDVbveXFAY3QRfXmo-21" value="" style="image;aspect=fixed;html=1;points=[];align=center;fontSize=12;image=img/lib/azure2/iot/Function_Apps.svg;" vertex="1" parent="1">
          <mxGeometry x="845.8628571428571" y="374.47285714285715" width="23.26530612244898" height="20.52857142857143" as="geometry" />
        </mxCell>
        <mxCell id="k5jXDVbveXFAY3QRfXmo-41" style="rounded=0;orthogonalLoop=1;jettySize=auto;html=1;dashed=1;dashPattern=1 4;endArrow=none;endFill=0;" edge="1" parent="1" source="k5jXDVbveXFAY3QRfXmo-22" target="k5jXDVbveXFAY3QRfXmo-36">
          <mxGeometry relative="1" as="geometry" />
        </mxCell>
        <mxCell id="k5jXDVbveXFAY3QRfXmo-22" value="" style="rounded=1;whiteSpace=wrap;html=1;" vertex="1" parent="1">
          <mxGeometry x="835" y="440" width="145" height="50" as="geometry" />
        </mxCell>
        <mxCell id="k5jXDVbveXFAY3QRfXmo-23" value="Update&lt;b&gt;Sleep&lt;/b&gt;Activity" style="text;html=1;align=left;verticalAlign=middle;whiteSpace=wrap;rounded=0;fontSize=10;" vertex="1" parent="1">
          <mxGeometry x="869.13" y="450" width="100" height="30" as="geometry" />
        </mxCell>
        <mxCell id="k5jXDVbveXFAY3QRfXmo-24" value="" style="image;aspect=fixed;html=1;points=[];align=center;fontSize=12;image=img/lib/azure2/iot/Function_Apps.svg;" vertex="1" parent="1">
          <mxGeometry x="845.8628571428571" y="454.47285714285715" width="23.26530612244898" height="20.52857142857143" as="geometry" />
        </mxCell>
        <mxCell id="k5jXDVbveXFAY3QRfXmo-38" style="rounded=0;orthogonalLoop=1;jettySize=auto;html=1;dashed=1;dashPattern=1 4;endArrow=none;endFill=0;" edge="1" parent="1" source="k5jXDVbveXFAY3QRfXmo-27" target="k5jXDVbveXFAY3QRfXmo-36">
          <mxGeometry relative="1" as="geometry" />
        </mxCell>
        <mxCell id="k5jXDVbveXFAY3QRfXmo-27" value="" style="rounded=1;whiteSpace=wrap;html=1;" vertex="1" parent="1">
          <mxGeometry x="660" y="280" width="145" height="50" as="geometry" />
        </mxCell>
        <mxCell id="k5jXDVbveXFAY3QRfXmo-28" value="Update&lt;b&gt;Workout&lt;/b&gt;Activity" style="text;html=1;align=left;verticalAlign=middle;whiteSpace=wrap;rounded=0;fontSize=10;" vertex="1" parent="1">
          <mxGeometry x="694.13" y="290" width="100" height="30" as="geometry" />
        </mxCell>
        <mxCell id="k5jXDVbveXFAY3QRfXmo-29" value="" style="image;aspect=fixed;html=1;points=[];align=center;fontSize=12;image=img/lib/azure2/iot/Function_Apps.svg;" vertex="1" parent="1">
          <mxGeometry x="670.8628571428571" y="294.47285714285715" width="23.26530612244898" height="20.52857142857143" as="geometry" />
        </mxCell>
        <mxCell id="k5jXDVbveXFAY3QRfXmo-36" value="&lt;font color=&quot;#3675a3&quot;&gt;Cosmos Db&lt;/font&gt;" style="image;aspect=fixed;html=1;points=[];align=center;fontSize=12;image=img/lib/azure2/databases/Azure_Cosmos_DB.svg;" vertex="1" parent="1">
          <mxGeometry x="683.27" y="386" width="64" height="64" as="geometry" />
        </mxCell>
        <mxCell id="k5jXDVbveXFAY3QRfXmo-39" style="rounded=0;orthogonalLoop=1;jettySize=auto;html=1;entryX=0.996;entryY=0.187;entryDx=0;entryDy=0;entryPerimeter=0;dashed=1;dashPattern=1 4;endArrow=none;endFill=0;" edge="1" parent="1" source="k5jXDVbveXFAY3QRfXmo-16" target="k5jXDVbveXFAY3QRfXmo-36">
          <mxGeometry relative="1" as="geometry" />
        </mxCell>
        <mxCell id="k5jXDVbveXFAY3QRfXmo-42" value="" style="image;aspect=fixed;html=1;points=[];align=center;fontSize=12;image=img/lib/azure2/iot/Function_Apps.svg;" vertex="1" parent="1">
          <mxGeometry x="738.3628571428571" y="59.73285714285713" width="23.26530612244898" height="20.52857142857143" as="geometry" />
        </mxCell>
      </root>
    </mxGraphModel>
  </diagram>
</mxfile>
